# xmcd CD database file
#
# Track frame offsets:
#	150
#	36466
#	73170
#	89545
#	115651
#	136057
#	152526
#	178622
#	207928
#	225505
#	259199
#	327771
#
# Disc length: 4570 seconds
#
# Revision: 0
# Processed by: cddbd v1.5.1PL2 Copyright (c) Steve Scherf et al.
# Submitted via: CDex 1.51
#
DISCID=a111d80c
DTITLE=Various Artist - Vol. 6 Number 2 Blue
DYEAR=2006
DGENRE=Jazz
TTITLE0=Ernie Watts/The Bubala Dance
TTITLE1=Terry Plumeri/Dolphin Dance
TTITLE2=Sandy Sasso/All My Men
TTITLE3=Mark Sherman/Little Lullaby
TTITLE4=Joan Crowe/Twisted
TTITLE5=John Pisano/Amanhecer (Dawn)
TTITLE6=Frank Catalano/Love Bugaloo
TTITLE7=Mark Weinstein/Elegua Abierto
TTITLE8=3D/Otra Vez
TTITLE9=Nima Rezai/Kurdish Dance
TTITLE10=Allen Houser/Jack's of Sutter Street
TTITLE11=Data
EXTD=YEAR: 2006
EXTT0=
EXTT1=
EXTT2=
EXTT3=
EXTT4=
EXTT5=
EXTT6=
EXTT7=
EXTT8=
EXTT9=
EXTT10=
EXTT11=
PLAYORDER=
